HIERARCHY
ROOT Hips
{
	OFFSET -0.001795 -0.223333 0.028219
	CHANNELS 6 Xposition Yposition Zposition Zrotation Yrotation Xrotation 
	JOINT LeftUpLeg
	{
		OFFSET 0.069520 -0.091406 -0.006815
		CHANNELS 3 Zrotation Yrotation Xrotation
		JOINT LeftLeg
		{
			OFFSET 0.034277 -0.375199 -0.004496
			CHANNELS 3 Zrotation Yrotation Xrotation
			JOINT LeftFoot
			{
				OFFSET -0.013596 -0.397961 -0.043693
				CHANNELS 3 Zrotation Yrotation Xrotation
				JOINT LeftToe
				{
					OFFSET 0.026358 -0.055791 0.119288
					CHANNELS 3 Zrotation Yrotation Xrotation
					End Site
					{
						OFFSET 0.000000 0.000000 0.000000
					}
				}
			}
		}
	}
	JOINT RightUpLeg
	{
		OFFSET -0.067670 -0.090522 -0.004320
		CHANNELS 3 Zrotation Yrotation Xrotation
		JOINT RightLeg
		{
			OFFSET -0.038290 -0.382569 -0.008850
			CHANNELS 3 Zrotation Yrotation Xrotation
			JOINT RightFoot
			{
				OFFSET 0.015774 -0.398415 -0.042312
				CHANNELS 3 Zrotation Yrotation Xrotation
				JOINT RightToe
				{
					OFFSET -0.025372 -0.048144 0.123348
					CHANNELS 3 Zrotation Yrotation Xrotation
					End Site
					{
						OFFSET 0.000000 0.000000 0.000000
					}
				}
			}
		}
	}
	JOINT Spine
	{
		OFFSET -0.002533 0.108963 -0.026696
		CHANNELS 3 Zrotation Yrotation Xrotation
		JOINT Spine1
		{
			OFFSET 0.005487 0.135180 0.001092
			CHANNELS 3 Zrotation Yrotation Xrotation
			JOINT Spine2
			{
				OFFSET 0.001457 0.052922 0.025425
				CHANNELS 3 Zrotation Yrotation Xrotation
				JOINT Neck
				{
					OFFSET -0.002778 0.213870 -0.042857
					CHANNELS 3 Zrotation Yrotation Xrotation
					JOINT Head
					{
						OFFSET 0.005152 0.064970 0.051349
						CHANNELS 3 Zrotation Yrotation Xrotation
						End Site
						{
							OFFSET 0.000000 0.000000 0.000000
						}
					}
				}
				JOINT LeftShoulder
				{
					OFFSET 0.078845 0.121749 -0.034090
					CHANNELS 3 Zrotation Yrotation Xrotation
					JOINT LeftArm
					{
						OFFSET 0.090977 0.030469 -0.008868
						CHANNELS 3 Zrotation Yrotation Xrotation
						JOINT LeftForeArm
						{
							OFFSET 0.259612 -0.012772 -0.027456
							CHANNELS 3 Zrotation Yrotation Xrotation
							JOINT LeftHand
							{
								OFFSET 0.249234 0.008986 -0.001171
								CHANNELS 3 Zrotation Yrotation Xrotation
								End Site
								{
									OFFSET 0.000000 0.000000 0.000000
								}
							}
						}
					}
				}
				JOINT RightShoulder
				{
					OFFSET -0.081759 0.118833 -0.038615
					CHANNELS 3 Zrotation Yrotation Xrotation
					JOINT RightArm
					{
						OFFSET -0.096012 0.032551 -0.009143
						CHANNELS 3 Zrotation Yrotation Xrotation
						JOINT RightForeArm
						{
							OFFSET -0.253742 -0.013329 -0.021401
							CHANNELS 3 Zrotation Yrotation Xrotation
							JOINT RightHand
							{
								OFFSET -0.255298 0.007772 -0.005559
								CHANNELS 3 Zrotation Yrotation Xrotation
								End Site
								{
									OFFSET 0.000000 0.000000 0.000000
								}
							}
						}
					}
				}
			}
		}
	}
}
MOTION
Frames: 12
Frame Time: 0.050000
0.000000 0.940754 0.000000 -0.330063 2.972540 1.509403 11.183205 -0.294055 2.348468 -4.981077 0.488548 -1.987634 3.178920 9.193055 8.479299 0.000000 0.000000 0.000000 -6.902304 0.139788 -0.196926 2.452050 -0.203850 4.655730 -3.951899 -11.316348 6.868055 0.000000 0.000000 0.000000 -2.627916 0.024923 0.324643 3.198182 -0.279619 -20.651897 -1.854625 -4.180185 28.096841 -3.133066 2.826903 -13.962358 0.000000 0.000000 0.000000 -9.955156 4.118191 -2.047215 -26.192504 -7.965373 -3.067535 19.499513 -6.356091 -0.529148 0.000000 0.000000 0.000000 -2.156157 -2.125332 -0.579991 31.134680 -4.791776 -5.402835 -17.925738 3.718275 -0.077120 0.000000 0.000000 0.000000 
0.000111 0.939860 -0.000726 -0.552192 2.381567 1.441461 11.142431 -0.278471 3.261084 -4.053508 0.413316 -3.802227 3.228341 9.519018 9.610147 0.000000 0.000000 0.000000 -6.850242 0.144377 -0.099295 2.686802 -0.238236 4.320218 -3.724890 -10.931735 7.183336 0.000000 0.000000 0.000000 -2.619132 0.021772 0.508982 4.276920 -0.579741 -20.805143 -2.416124 -2.910824 28.052409 -4.258236 3.809510 -13.232284 0.000000 0.000000 0.000000 -10.776775 4.205570 -2.261170 -29.460230 -9.040693 -3.118170 17.702031 -7.882047 -0.642064 0.000000 0.000000 0.000000 -0.235620 -2.350286 -0.818900 34.380638 -6.136617 -6.355728 -18.850697 9.171700 -0.761606 0.000000 0.000000 0.000000 
0.000495 0.938056 -0.001871 -0.560980 1.399358 0.843237 10.788243 -0.212427 3.503656 -4.330385 0.451393 -1.961943 3.766098 9.900460 7.623289 0.000000 0.000000 0.000000 -7.416175 0.172273 -0.379204 3.163036 -0.291023 5.196211 -3.099248 -9.624986 6.877235 0.000000 0.000000 0.000000 -1.572123 -0.010737 1.009149 3.467270 -0.383697 -20.761162 -2.746808 -2.158618 29.249974 -2.355919 2.466017 -15.480171 0.000000 0.000000 0.000000 -11.758698 3.456041 -1.968036 -32.237152 -9.032774 -3.434544 17.696760 -9.151491 -0.757176 0.000000 0.000000 0.000000 1.793893 -1.315529 -0.583054 37.492486 -4.619770 -6.645018 -19.427246 7.182440 -0.476192 0.000000 0.000000 0.000000 
0.000889 0.938115 -0.003325 -0.454716 1.400837 1.120808 10.820121 -0.220116 3.413100 -4.837322 0.493441 -2.214783 4.017917 10.371223 7.790776 0.000000 0.000000 0.000000 -7.620166 0.199874 -0.940410 2.963910 -0.265539 4.701177 -2.705791 -9.042081 7.916395 0.000000 0.000000 0.000000 -2.090387 0.006601 0.752855 4.064190 -0.523898 -21.124295 -3.138140 -3.111096 30.258047 -4.426555 3.825248 -14.921484 0.000000 0.000000 0.000000 -13.702473 3.667015 -2.030778 -36.307098 -8.411508 -4.065703 17.328081 -10.219928 -0.759478 0.000000 0.000000 0.000000 2.840481 0.260866 -0.084344 41.329471 -5.017513 -7.581277 -19.305367 9.354775 -0.782658 0.000000 0.000000 0.000000 
0.001176 0.937601 -0.005142 -0.117217 1.274665 1.133997 10.325955 -0.189897 3.023574 -5.023370 0.514262 -1.896571 4.372559 10.972203 7.776191 0.000000 0.000000 0.000000 -7.736021 0.218161 -1.378077 2.476553 -0.191698 4.639302 -3.036927 -9.888228 8.628617 0.000000 0.000000 0.000000 -2.349130 0.000363 1.296139 4.782438 -0.730969 -20.978708 -3.715838 -2.960537 29.961076 -4.392408 3.800089 -16.049477 0.000000 0.000000 0.000000 -15.557188 2.934118 -1.795479 -39.185732 -7.618657 -4.526098 16.791075 -10.720191 -0.753317 0.000000 0.000000 0.000000 4.895400 0.880599 0.028346 44.968125 -4.264758 -8.010352 -20.352145 10.027208 -0.893291 0.000000 0.000000 0.000000 
0.001299 0.937195 -0.007128 0.061388 1.084584 1.421828 9.960014 -0.174480 2.499140 -4.939565 0.511793 -1.589385 4.758692 11.621600 7.755188 0.000000 0.000000 0.000000 -7.984880 0.247079 -1.942662 2.502784 -0.190035 4.860225 -2.972706 -9.688275 8.243202 0.000000 0.000000 0.000000 -2.507567 0.002962 1.483440 4.593652 -0.701719 -20.667607 -3.371151 -3.717621 29.749679 -4.833336 3.961753 -17.005565 0.000000 0.000000 0.000000 -16.653779 2.916463 -1.676557 -42.610754 -7.522103 -4.897311 15.887800 -10.493451 -0.605689 0.000000 0.000000 0.000000 5.756558 1.245061 0.048508 48.305897 -2.718426 -8.056760 -20.684208 11.789744 -1.187821 0.000000 0.000000 0.000000 
0.001138 0.937182 -0.009250 0.070440 0.843701 1.384284 10.125880 -0.172968 2.445122 -4.980299 0.518364 -1.580976 4.898646 11.924287 8.166041 0.000000 0.000000 0.000000 -8.008157 0.266972 -2.471434 2.551922 -0.189802 5.197579 -2.995921 -9.862399 8.718915 0.000000 0.000000 0.000000 -2.404644 -0.012749 2.142600 4.822812 -0.769360 -20.670026 -3.385484 -3.591782 29.614295 -4.880895 3.992597 -17.258327 0.000000 0.000000 0.000000 -18.532466 2.175581 -1.368441 -44.684801 -7.492350 -5.110417 14.908790 -10.474138 -0.526817 0.000000 0.000000 0.000000 7.872412 2.136120 0.268699 50.881579 -2.434862 -8.380409 -20.973336 13.833648 -1.484180 0.000000 0.000000 0.000000 
0.000912 0.937262 -0.011335 -0.189780 0.163706 1.386824 10.233211 -0.156773 2.137039 -4.931248 0.528401 -0.882940 5.111365 12.148245 7.546937 0.000000 0.000000 0.000000 -7.687669 0.304141 -3.218386 2.521566 -0.165699 5.917348 -2.523979 -8.810560 8.074879 0.000000 0.000000 0.000000 -2.166683 -0.035813 2.878970 5.091489 -0.849807 -20.750731 -3.221622 -3.357036 29.409802 -4.509205 3.697841 -18.175318 0.000000 0.000000 0.000000 -20.103044 1.938428 -1.261759 -46.400369 -7.619165 -5.241017 13.709078 -10.289912 -0.420271 0.000000 0.000000 0.000000 9.631950 2.577799 0.310615 52.966318 -1.560342 -8.345619 -20.958038 16.228042 -1.823977 0.000000 0.000000 0.000000 
0.000637 0.937470 -0.013398 -0.516115 -0.056339 1.539483 10.740553 -0.170040 1.637122 -4.898612 0.531336 -0.440720 5.051198 12.095978 7.910586 0.000000 0.000000 0.000000 -7.334417 0.335690 -3.880956 2.541366 -0.161253 6.196574 -2.363383 -8.502029 8.085299 0.000000 0.000000 0.000000 -2.063557 -0.045957 3.189693 5.489995 -0.959683 -20.773854 -3.207031 -3.299364 29.301715 -4.644824 3.772569 -19.106620 0.000000 0.000000 0.000000 -21.345411 1.902567 -1.289441 -47.731506 -7.980383 -5.226977 13.125363 -10.680457 -0.395035 0.000000 0.000000 0.000000 10.983753 2.973036 0.381244 54.298294 -1.582080 -8.548273 -19.407863 18.962990 -2.005536 0.000000 0.000000 0.000000 
0.000307 0.937629 -0.015455 -0.698451 -0.101965 1.813523 10.923882 -0.178562 1.018295 -4.806208 0.524659 -0.072884 5.206011 12.259154 7.314627 0.000000 0.000000 0.000000 -6.984118 0.372564 -4.620777 2.470309 -0.145772 6.382657 -2.233673 -8.178295 7.858056 0.000000 0.000000 0.000000 -1.943439 -0.048697 3.159181 5.599217 -1.000030 -20.622798 -3.085431 -3.414410 29.171942 -4.650616 3.756037 -18.925810 0.000000 0.000000 0.000000 -22.136139 1.684432 -1.167182 -48.901311 -8.114995 -5.268265 12.626726 -11.268516 -0.383349 0.000000 0.000000 0.000000 11.867845 3.255869 0.423658 55.550022 -2.275336 -9.031552 -18.003948 21.872265 -2.162421 0.000000 0.000000 0.000000 
-0.000010 0.937686 -0.017297 -0.768177 -0.035853 1.929733 10.908828 -0.182333 0.727628 -4.443563 0.484848 0.055403 5.026937 11.997756 7.585987 0.000000 0.000000 0.000000 -6.727780 0.375669 -4.592427 2.569503 -0.170606 5.913883 -2.404462 -8.491905 7.739025 0.000000 0.000000 0.000000 -2.110743 -0.048570 3.488032 5.850463 -1.053633 -20.784897 -3.090083 -3.506524 29.044368 -4.779092 3.829843 -19.438202 0.000000 0.000000 0.000000 -22.758083 1.893363 -1.318718 -49.646884 -7.996980 -5.371992 11.609255 -13.070977 -0.385074 0.000000 0.000000 0.000000 12.631358 3.209146 0.338237 56.336238 -3.037950 -9.491359 -15.771046 24.288143 -2.031863 0.000000 0.000000 0.000000 
-0.000287 0.938096 -0.018974 -0.783705 -0.414697 1.892263 10.787991 -0.166097 0.582776 -4.214463 0.464074 0.186933 5.246957 12.335148 7.434089 0.000000 0.000000 0.000000 -6.557991 0.386417 -4.671622 2.709471 -0.189749 5.819459 -2.287869 -8.302344 7.803453 0.000000 0.000000 0.000000 -2.289893 -0.044998 3.706735 6.123927 -1.144021 -20.692188 -2.882405 -3.366303 28.961854 -4.799030 3.840757 -18.776360 0.000000 0.000000 0.000000 -23.170689 2.487398 -1.685573 -50.519094 -7.683887 -5.545617 10.629911 -15.098040 -0.353368 0.000000 0.000000 0.000000 13.055763 3.077277 0.219241 56.986963 -4.298685 -10.169067 -13.508502 27.242978 -1.847528 0.000000 0.000000 0.000000 
